<svg xmlns="http://www.w3.org/2000/svg" width="21" height="20" viewBox="0 0 21 20" fill="none">
    <path d="M15.5591 4.6176L10.8025 2.58222C10.3 2.3672 9.73135 2.3672 9.22885 2.58222L4.47223 4.6176C3.65228 4.96846 3.16373 5.81983 3.27452 6.70478L3.72123 10.2728C3.94189 12.0354 4.82437 13.6481 6.18984 14.7843L8.73646 16.9031C9.47774 17.5199 10.5536 17.5199 11.2948 16.9031L13.8415 14.7842C15.2069 13.6481 16.0894 12.0354 16.3101 10.2728L16.7568 6.70478C16.8676 5.81983 16.379 4.96846 15.5591 4.6176Z" stroke="#FFFFFF" stroke-width="2" stroke-linecap="round"></path>
    <path d="M7.51169 10L9.58465 12.0697C9.80772 12.2924 10.1787 12.2557 10.3538 11.9936L13.3541 7.5" stroke="#FFFFFF" stroke-width="2" stroke-linecap="round"></path>
</svg>