<svg xmlns="http://www.w3.org/2000/svg" width="23" height="23" viewBox="0 0 23 23" fill="none">
    <path d="M8.50505 5.66996C8.50505 6.04226 8.57838 6.41091 8.72085 6.75487C8.86332 7.09883 9.07215 7.41135 9.3354 7.67461C9.59866 7.93786 9.91118 8.14669 10.2551 8.28916C10.5991 8.43163 10.9678 8.50496 11.34 8.50496C11.7123 8.50496 12.081 8.43163 12.425 8.28916C12.7689 8.14669 13.0814 7.93786 13.3447 7.67461C13.608 7.41135 13.8168 7.09883 13.9592 6.75487C14.1017 6.41091 14.175 6.04226 14.175 5.66996C14.175 5.29766 14.1017 4.92901 13.9592 4.58505C13.8168 4.24109 13.6079 3.92857 13.3447 3.66531C13.0814 3.40206 12.7689 3.19323 12.425 3.05076C12.081 2.90829 11.7123 2.83496 11.34 2.83496C10.9677 2.83496 10.5991 2.90829 10.2551 3.05076C9.91118 3.19324 9.59865 3.40206 9.3354 3.66531C9.07215 3.92857 8.86332 4.2411 8.72085 4.58506C8.57838 4.92901 8.50505 5.29767 8.50505 5.66996L8.50505 5.66996Z" stroke="#FFFFFF" stroke-width="1.89"></path>
    <path d="M4.1937 13.137C3.87129 13.3232 3.58869 13.571 3.36205 13.8664C3.13541 14.1617 2.96916 14.4988 2.87281 14.8584C2.77645 15.2181 2.75186 15.5931 2.80046 15.9622C2.84905 16.3314 2.96987 16.6873 3.15602 17.0097C3.34217 17.3321 3.59 17.6147 3.88537 17.8414C4.18073 18.068 4.51784 18.2342 4.87745 18.3306C5.23707 18.427 5.61213 18.4515 5.98125 18.4029C6.35036 18.3544 6.70629 18.2335 7.02871 18.0474C7.35112 17.8612 7.63372 17.6134 7.86036 17.318C8.087 17.0227 8.25325 16.6856 8.3496 16.326C8.44596 15.9663 8.47055 15.5913 8.42195 15.2222C8.37336 14.853 8.25254 14.4971 8.06639 14.1747C7.88024 13.8523 7.63241 13.5697 7.33704 13.343C7.04168 13.1164 6.70457 12.9502 6.34496 12.8538C5.98534 12.7574 5.61027 12.7329 5.24116 12.7815C4.87205 12.83 4.51612 12.9509 4.1937 13.137L4.1937 13.137Z" stroke="#FFFFFF" stroke-width="1.89"></path>
    <path d="M18.4862 13.137C18.8086 13.3232 19.0912 13.571 19.3179 13.8664C19.5445 14.1617 19.7108 14.4988 19.8071 14.8584C19.9035 15.2181 19.9281 15.5931 19.8795 15.9622C19.8309 16.3314 19.7101 16.6873 19.5239 17.0097C19.3378 17.3321 19.0899 17.6147 18.7946 17.8414C18.4992 18.068 18.1621 18.2342 17.8025 18.3306C17.4429 18.427 17.0678 18.4515 16.6987 18.4029C16.3296 18.3544 15.9736 18.2335 15.6512 18.0474C15.3288 17.8612 15.0462 17.6134 14.8196 17.318C14.5929 17.0227 14.4267 16.6856 14.3303 16.326C14.234 15.9663 14.2094 15.5913 14.258 15.2222C14.3066 14.853 14.4274 14.4971 14.6135 14.1747C14.7997 13.8523 15.0475 13.5697 15.3429 13.343C15.6383 13.1164 15.9754 12.9502 16.335 12.8538C16.6946 12.7574 17.0697 12.7329 17.4388 12.7815C17.8079 12.83 18.1638 12.9509 18.4862 13.137L18.4862 13.137Z" stroke="#FFFFFF" stroke-width="1.89"></path>
    <path fill-rule="evenodd" clip-rule="evenodd" d="M8.57076 6.27772C8.52708 6.07865 8.5049 5.87498 8.5049 5.6702C8.5049 5.2979 8.57823 4.92925 8.7207 4.58529C8.78847 4.42168 8.87125 4.26518 8.96776 4.11772C8.6687 4.20458 8.37407 4.30796 8.08523 4.4276C7.05336 4.85502 6.11578 5.48149 5.32601 6.27126C4.53625 7.06102 3.90978 7.9986 3.48236 9.03048C3.05495 10.0624 2.83496 11.1683 2.83496 12.2852C2.83496 12.9705 2.91779 13.6518 3.08055 14.3143C3.16001 14.1569 3.25416 14.007 3.36197 13.8665C3.58861 13.5711 3.87121 13.3233 4.19363 13.1371C4.37098 13.0347 4.55846 12.9521 4.7527 12.8904C4.73425 12.6895 4.72496 12.4876 4.72496 12.2852C4.72496 11.4165 4.89606 10.5563 5.2285 9.75375C5.56093 8.95118 6.04819 8.22195 6.66245 7.60769C7.21548 7.05465 7.86172 6.60456 8.57076 6.27772ZM14.109 6.27767C14.8181 6.60451 15.4644 7.05462 16.0175 7.60768C16.6317 8.22194 17.119 8.95117 17.4514 9.75374C17.7839 10.5563 17.955 11.4165 17.955 12.2852C17.955 12.4876 17.9457 12.6896 17.9272 12.8904C18.1214 12.9521 18.3089 13.0347 18.4862 13.1371C18.8086 13.3233 19.0912 13.5711 19.3178 13.8665C19.4257 14.007 19.5199 14.157 19.5993 14.3144C19.7621 13.6519 19.845 12.9706 19.845 12.2852C19.845 11.1683 19.625 10.0623 19.1976 9.03047C18.7701 7.9986 18.1437 7.06101 17.3539 6.27125C16.5641 5.48149 15.6266 4.85502 14.5947 4.4276C14.3058 4.30794 14.0111 4.20454 13.712 4.11768C13.8085 4.26515 13.8913 4.42166 13.9591 4.58529C14.1016 4.92925 14.1749 5.2979 14.1749 5.6702C14.1749 5.87496 14.1527 6.07862 14.109 6.27767ZM17.2276 18.4228C17.0515 18.4327 16.8744 18.4262 16.6986 18.403C16.3295 18.3545 15.9736 18.2336 15.6512 18.0475C15.4739 17.9452 15.3087 17.8242 15.1582 17.6869C14.7579 17.9699 14.3265 18.2082 13.8714 18.3967C13.0688 18.7291 12.2087 18.9002 11.34 18.9002C10.4713 18.9002 9.61108 18.7291 8.80851 18.3967C8.35343 18.2082 7.92193 17.9699 7.5216 17.6869C7.3711 17.8242 7.20588 17.9451 7.02863 18.0475C6.70621 18.2336 6.35028 18.3545 5.98117 18.403C5.80547 18.4262 5.62842 18.4327 5.45233 18.4228C6.21504 19.1545 7.10784 19.7379 8.08524 20.1428C9.11711 20.5702 10.2231 20.7902 11.34 20.7902C12.4569 20.7902 13.5628 20.5702 14.5947 20.1428C15.5721 19.7379 16.4649 19.1545 17.2276 18.4228Z" fill="#FFFFFF"></path>
</svg>