<svg xmlns="http://www.w3.org/2000/svg" width="24" height="24" viewBox="0 0 24 24" fill="none">
                            <path d="M3.83213 14.0326C3.3325 13.1344 3.08268 12.6853 3.08268 12.195C3.08268 11.7047 3.3325 11.2556 3.83213 10.3575L5.10717 8.06537L6.45466 5.8151C6.98268 4.93333 7.24669 4.49244 7.67131 4.24728C8.09593 4.00213 8.60975 3.99394 9.6374 3.97755L12.2599 3.93572L14.8825 3.97755C15.9101 3.99394 16.4239 4.00213 16.8486 4.24728C17.2732 4.49244 17.5372 4.93332 18.0652 5.8151L19.4127 8.06537L20.6877 10.3575C21.1874 11.2556 21.4372 11.7047 21.4372 12.195C21.4372 12.6853 21.1874 13.1344 20.6877 14.0326L19.4127 16.3247L18.0652 18.5749C17.5372 19.4567 17.2732 19.8976 16.8486 20.1428C16.4239 20.3879 15.9101 20.3961 14.8825 20.4125L12.2599 20.4543L9.6374 20.4125C8.60975 20.3961 8.09593 20.3879 7.67131 20.1428C7.24669 19.8976 6.98268 19.4567 6.45466 18.5749L5.10717 16.3247L3.83213 14.0326Z" stroke="#33363F" stroke-width="1.89"></path>
                            <circle cx="12.2599" cy="12.1949" r="2.835" stroke="#33363F" stroke-width="1.89"></circle>
                        </svg>