<svg xmlns="http://www.w3.org/2000/svg" width="24" height="24" viewBox="0 0 24 24" fill="none">
                            <path d="M3.75488 13.895V14.84C3.75488 16.9276 5.44725 18.62 7.53488 18.62V18.62C9.10061 18.62 10.3699 17.3507 10.3699 15.785V14.84C10.3699 13.7961 11.2161 12.95 12.2599 12.95V12.95C13.3037 12.95 14.1499 13.7961 14.1499 14.84V15.785C14.1499 17.3507 15.4192 18.62 16.9849 18.62V18.62C19.0725 18.62 20.7649 16.9276 20.7649 14.84V13.895" stroke="#33363F" stroke-width="1.89" stroke-linecap="round"></path>
                            <path d="M14.1499 13.895H20.7649L18.2369 6.31094C18.048 5.74435 17.5614 5.32857 16.9723 5.23039V5.23039C15.9895 5.06659 15.0949 5.82447 15.0949 6.82081V7.27998" stroke="#33363F" stroke-width="1.89" stroke-linecap="round" stroke-linejoin="round"></path>
                            <path d="M10.3699 13.895H3.75488L6.2829 6.31094C6.47176 5.74435 6.95834 5.32857 7.54745 5.23039V5.23039C8.53024 5.06659 9.42488 5.82447 9.42488 6.82081V7.27998" stroke="#33363F" stroke-width="1.89" stroke-linecap="round" stroke-linejoin="round"></path>
                        </svg>