<svg xmlns="http://www.w3.org/2000/svg" width="23" height="23" viewBox="0 0 23 23" fill="none">
    <path d="M6.61499 13.545C6.61499 12.3674 6.61499 11.7786 6.8682 11.34C7.03408 11.0527 7.27267 10.8141 7.55999 10.6482C7.99857 10.395 8.58737 10.395 9.76499 10.395H12.915C14.0926 10.395 14.6814 10.395 15.12 10.6482C15.4073 10.8141 15.6459 11.0527 15.8118 11.34C16.065 11.7786 16.065 12.3674 16.065 13.545V15.12C16.065 15.9982 16.065 16.4373 15.9924 16.8025C15.6941 18.302 14.5219 19.4741 13.0224 19.7724C12.6573 19.845 12.2182 19.845 11.34 19.845V19.845C10.4618 19.845 10.0227 19.845 9.65755 19.7724C8.15806 19.4741 6.98589 18.302 6.68762 16.8025C6.61499 16.4373 6.61499 15.9982 6.61499 15.12V13.545Z" stroke="#FFFFFF" stroke-width="1.89"></path>
    <path d="M8.505 8.50492C8.505 7.62429 8.505 7.18398 8.64887 6.83665C8.8407 6.37355 9.20863 6.00561 9.67173 5.81379C10.0191 5.66992 10.4594 5.66992 11.34 5.66992V5.66992C12.2206 5.66992 12.6609 5.66992 13.0083 5.81379C13.4714 6.00561 13.8393 6.37355 14.0311 6.83665C14.175 7.18398 14.175 7.62429 14.175 8.50492V10.3949H8.505V8.50492Z" stroke="#FFFFFF" stroke-width="1.89"></path>
    <path d="M11.34 10.395V14.175" stroke="#FFFFFF" stroke-width="1.89" stroke-linecap="round"></path>
    <path d="M14.175 2.83496L12.285 5.66996" stroke="#FFFFFF" stroke-width="1.89" stroke-linecap="round"></path>
    <path d="M8.505 2.83496L10.395 5.66996" stroke="#FFFFFF" stroke-width="1.89" stroke-linecap="round"></path>
    <path d="M6.61499 15.1201H1.88999" stroke="#FFFFFF" stroke-width="1.89" stroke-linecap="round"></path>
    <path d="M20.79 15.1201H16.065" stroke="#FFFFFF" stroke-width="1.89" stroke-linecap="round"></path>
    <path d="M18.9 8.50488V9.44988C18.9 11.0156 17.6308 12.2849 16.065 12.2849V12.2849" stroke="#FFFFFF" stroke-width="1.89" stroke-linecap="round"></path>
    <path d="M18.9 20.79V20.79C18.9 19.2243 17.6308 17.955 16.065 17.955V17.955" stroke="#FFFFFF" stroke-width="1.89" stroke-linecap="round"></path>
    <path d="M3.78003 8.50488V9.44988C3.78003 11.0156 5.0493 12.2849 6.61503 12.2849V12.2849" stroke="#FFFFFF" stroke-width="1.89" stroke-linecap="round"></path>
    <path d="M3.78003 20.79V20.79C3.78003 19.2243 5.0493 17.955 6.61503 17.955V17.955" stroke="#FFFFFF" stroke-width="1.89" stroke-linecap="round"></path>
</svg>