<svg xmlns="http://www.w3.org/2000/svg" width="23" height="23" viewBox="0 0 23 23" fill="none">
    <circle cx="11.3401" cy="7.56003" r="2.835" stroke="#FFFFFF" stroke-width="1.89" stroke-linecap="round"></circle>
    <path d="M14.4282 7.55992C14.6788 7.12582 15.0916 6.80906 15.5758 6.67932C16.06 6.54959 16.5759 6.6175 17.01 6.86813C17.4441 7.11876 17.7608 7.53157 17.8906 8.01575C18.0203 8.49993 17.9524 9.01582 17.7018 9.44992C17.4511 9.88403 17.0383 10.2008 16.5541 10.3305C16.07 10.4603 15.5541 10.3923 15.12 10.1417C14.6859 9.89108 14.3691 9.47827 14.2394 8.99409C14.1096 8.50991 14.1776 7.99403 14.4282 7.55992L14.4282 7.55992Z" stroke="#FFFFFF" stroke-width="1.89"></path>
    <path d="M4.97824 7.55992C5.22887 7.12582 5.64168 6.80906 6.12586 6.67932C6.61004 6.54959 7.12593 6.6175 7.56003 6.86813C7.99413 7.11876 8.31089 7.53157 8.44063 8.01575C8.57036 8.49993 8.50245 9.01582 8.25182 9.44992C8.00119 9.88403 7.58838 10.2008 7.1042 10.3305C6.62002 10.4603 6.10413 10.3923 5.67003 10.1417C5.23593 9.89108 4.91916 9.47827 4.78943 8.99409C4.65969 8.50991 4.72761 7.99403 4.97824 7.55992L4.97824 7.55992Z" stroke="#FFFFFF" stroke-width="1.89"></path>
    <path d="M15.953 17.01L15.0266 17.1966L15.1794 17.955H15.953V17.01ZM19.5805 15.9744L18.6899 16.2903V16.2903L19.5805 15.9744ZM13.9678 13.9014L13.3962 13.1489L12.3032 13.979L13.4687 14.7039L13.9678 13.9014ZM18.7744 16.065H15.953V17.955H18.7744V16.065ZM18.6899 16.2903C18.6832 16.2715 18.6771 16.236 18.6849 16.1929C18.6924 16.152 18.7092 16.121 18.7252 16.1012C18.7557 16.0633 18.7808 16.065 18.7744 16.065V17.955C19.8574 17.955 20.9235 16.9339 20.4711 15.6585L18.6899 16.2903ZM16.0649 14.175C17.6162 14.175 18.3354 15.2911 18.6899 16.2903L20.4711 15.6585C20.0317 14.4195 18.8513 12.285 16.0649 12.285V14.175ZM14.5394 14.654C14.9027 14.378 15.3864 14.175 16.0649 14.175V12.285C14.9669 12.285 14.083 12.6272 13.3962 13.1489L14.5394 14.654ZM13.4687 14.7039C14.4507 15.3146 14.862 16.3791 15.0266 17.1966L16.8794 16.8234C16.6735 15.8007 16.1003 14.1149 14.4669 13.099L13.4687 14.7039Z" fill="#FFFFFF"></path>
    <path d="M8.71213 13.9014L9.2112 14.7039L10.3767 13.979L9.28371 13.1488L8.71213 13.9014ZM3.09946 15.9744L3.9901 16.2903H3.9901L3.09946 15.9744ZM6.7268 17.01V17.955H7.50045L7.6532 17.1966L6.7268 17.01ZM6.61507 14.175C7.29358 14.175 7.77725 14.378 8.14056 14.6539L9.28371 13.1488C8.59689 12.6272 7.71301 12.285 6.61507 12.285V14.175ZM3.9901 16.2903C4.34452 15.2911 5.06376 14.175 6.61507 14.175V12.285C3.82872 12.285 2.6483 14.4195 2.20883 15.6585L3.9901 16.2903ZM3.90553 16.065C3.89913 16.065 3.92429 16.0633 3.95475 16.1012C3.97071 16.121 3.98758 16.152 3.99502 16.1929C4.00288 16.236 3.99675 16.2715 3.9901 16.2903L2.20883 15.6585C1.75646 16.9338 2.82255 17.955 3.90553 17.955V16.065ZM6.7268 16.065H3.90553V17.955H6.7268V16.065ZM7.6532 17.1966C7.81784 16.3791 8.22917 15.3146 9.2112 14.7039L8.21307 13.0989C6.5796 14.1148 6.00638 15.8007 5.8004 16.8234L7.6532 17.1966Z" fill="#FFFFFF"></path>
    <path d="M11.34 13.23C14.7151 13.23 15.6793 15.6408 15.9548 17.0184C16.0572 17.5301 15.6419 17.955 15.12 17.955H7.55999C7.03808 17.955 6.62282 17.5301 6.72517 17.0184C7.00065 15.6408 7.96489 13.23 11.34 13.23Z" stroke="#FFFFFF" stroke-width="1.89" stroke-linecap="round"></path>
</svg>