<?xml version="1.0" encoding="UTF-8"?>
<svg id="Layer_1" xmlns="http://www.w3.org/2000/svg" version="1.1" xmlns:xlink="http://www.w3.org/1999/xlink" viewBox="0 0 300 300">
  <!-- Generator: Adobe Illustrator 29.0.1, SVG Export Plug-In . SVG Version: 2.1.0 Build 192)  -->
  <defs>
    <style>
      .st0, .st1 {
        fill: #fff;
      }

      .st1 {
        fill-rule: evenodd;
      }

      .st2 {
        fill: url(#linear-gradient);
      }
    </style>
    <linearGradient id="linear-gradient" x1="-.16" y1="300.34" x2="299.84" y2=".34" gradientUnits="userSpaceOnUse">
      <stop offset="0" stop-color="#37c1f1"/>
      <stop offset="1" stop-color="#68bd45"/>
    </linearGradient>
  </defs>
  <path class="st2" d="M15.94.39h283.96v283.6c0,9.05-7.35,16.4-16.4,16.4H-.11V16.43C-.11,7.58,7.08.39,15.94.39Z"/>
  <g>
    <rect class="st0" x="48.39" y="202.72" width="203" height="15" rx="3.34" ry="3.34"/>
    <rect class="st0" x="48.39" y="231.15" width="203" height="15" rx="3.34" ry="3.34"/>
    <rect class="st0" x="48.39" y="259.58" width="203" height="15" rx="3.34" ry="3.34"/>
  </g>
  <g>
    <circle class="st0" cx="149.89" cy="73.48" r="34.63"/>
    <path class="st0" d="M149.89,115.45c-38.25,0-69.27,31.01-69.27,69.27h138.53c0-38.25-31.01-69.27-69.27-69.27Z"/>
  </g>
  <path class="st1" d="M275.39,27.85l-29.06,29.05c-1.54,1.56-3.96,1.56-5.51,0l-17.76-17.75c-1.55-1.57-1.9-3.8-.35-5.36l.69-.69c1.37-1.2,3.1-1.55,4.31-.17,4.31,4.32,8.8,8.62,13.11,13.11,1.54,1.54,3.97,1.54,5.51,0,4.32-4.49,20.11-20.09,24.41-24.41,1.21-1.38,2.94-1.03,4.32.17l.69.69c1.55,1.55,1.22,3.79-.35,5.36"/>
</svg>