<?xml version="1.0" encoding="UTF-8"?>
<svg id="Layer_1" xmlns="http://www.w3.org/2000/svg" version="1.1" xmlns:xlink="http://www.w3.org/1999/xlink" viewBox="0 0 300 300">
  <!-- Generator: Adobe Illustrator 29.0.1, SVG Export Plug-In . SVG Version: 2.1.0 Build 192)  -->
  <defs>
    <style>
      .st0 {
        fill: #fff;
      }

      .st1 {
        fill: url(#linear-gradient);
      }
    </style>
    <linearGradient id="linear-gradient" x1="-.16" y1="300.34" x2="299.84" y2=".34" gradientUnits="userSpaceOnUse">
      <stop offset="0" stop-color="#37c1f1"/>
      <stop offset="1" stop-color="#68bd45"/>
    </linearGradient>
  </defs>
  <path class="st1" d="M15.94.39h283.96v283.6c0,9.05-7.35,16.4-16.4,16.4H-.11V16.43C-.11,7.58,7.08.39,15.94.39Z"/>
  <path class="st0" d="M149.89,83.19c-48.16,0-87.19,39.04-87.19,87.19s39.04,87.19,87.19,87.19,87.19-39.04,87.19-87.19-39.04-87.19-87.19-87.19ZM154.02,119.06c16.92-.47,33.86-.23,51.94-.23-4,7.11-7.51,13.56-11.3,19.83-.64,1.06-2.53,1.93-3.86,1.94-18.07.13-36.13.08-55.54.08,3.87-6.33,6.63-11.82,10.35-16.56,1.92-2.45,5.5-4.98,8.4-5.07ZM106.17,139c7.98-14.67,16.39-29.1,25.28-44.7,4.22,7.05,7.93,13.02,11.35,19.15.7,1.26.96,3.53.3,4.69-8.98,15.84-18.17,31.56-28.01,48.54-3.66-6.97-7.2-12.74-9.68-18.94-.99-2.46-.54-6.34.77-8.75ZM76.31,149.09c-.25-.44-.22-1.05-.39-1.92.69-.17.87-.25,1.06-.25,7.58.08,16.45-2.23,22.36.96,5.64,3.04,8.32,11.73,12.05,18.08,5.86,9.97,11.5,20.06,18,31.43-7.9-.35-14.84-.14-21.57-1.21-2.74-.44-5.85-3.16-7.39-5.7-8.29-13.64-16.14-27.56-24.11-41.39ZM133.53,223.1c-13.86,0-27.71,0-42.88,0,4.06-7.33,7.38-13.68,11.11-19.79.82-1.34,3.05-2.57,4.64-2.58,17.83-.18,35.66-.11,53.68-.11-3.49,15.54-11.95,22.49-26.55,22.49ZM190.49,202.66c-7.6,14.44-16.03,28.43-24.88,43.82-4.33-7.33-8.29-13.84-11.99-20.5-.49-.88-.03-2.67.57-3.71,8.92-15.46,17.94-30.86,26.95-46.25.16-.27.64-.35,1.35-.72,2.81,5.13,6.3,10.03,8.18,15.48,1.23,3.58,1.49,8.69-.18,11.87ZM201.41,194.56c-1.58-.06-3.76-1.29-4.55-2.63-8.93-15.29-17.65-30.7-26.4-46.1-.15-.26.05-.71.1-1.23,6.21,0,12.52-.63,18.6.26,3.16.46,7.01,2.92,8.69,5.63,8.72,14.05,16.84,28.47,26.01,44.19-8.48,0-15.48.16-22.46-.12Z"/>
  <path class="st0" d="M257.56,86.82c-3.97,0-7.55-.51-10.73-1.53-3.18-1.02-5.96-2.41-8.33-4.16-2.37-1.75-4.31-3.77-5.83-6.05l6.22-6.31c1.23,2.05,2.77,3.84,4.64,5.39,1.87,1.55,4.03,2.76,6.48,3.64,2.45.88,5.14,1.31,8.06,1.31,3.97,0,7.11-.69,9.42-2.06,2.31-1.37,3.46-3.43,3.46-6.18,0-1.58-.58-2.99-1.75-4.25-1.17-1.26-3.27-2.23-6.31-2.94l-12.79-2.98c-3.39-.76-6.18-1.81-8.37-3.15-2.19-1.34-3.81-2.99-4.86-4.95-1.05-1.96-1.58-4.1-1.58-6.44,0-3.21.86-6.1,2.59-8.68,1.72-2.57,4.22-4.63,7.49-6.18,3.27-1.55,7.21-2.32,11.83-2.32,4.96,0,9.32.94,13.06,2.8,3.74,1.87,6.84,4.67,9.29,8.41l-5.96,5.78c-2.16-3.33-4.62-5.72-7.36-7.19-2.75-1.46-6.02-2.19-9.81-2.19-2.8,0-5.1.37-6.88,1.1-1.78.73-3.11,1.72-3.99,2.98-.88,1.26-1.31,2.64-1.31,4.16,0,1.23.25,2.34.74,3.33.5.99,1.42,1.87,2.76,2.63,1.34.76,3.24,1.4,5.7,1.93l11.39,2.54c5.43,1.23,9.29,3.04,11.57,5.43,2.28,2.4,3.42,5.46,3.42,9.2,0,3.45-.94,6.44-2.8,8.98-1.87,2.54-4.47,4.5-7.8,5.87-3.33,1.37-7.22,2.06-11.66,2.06ZM253.88,95.32V20.65h7.01v74.66h-7.01Z"/>
</svg>