<?xml version="1.0" encoding="utf-8"?>
<!-- Generator: Adobe Illustrator 27.9.6, SVG Export Plug-In . SVG Version: 9.03 Build 54986)  -->
<svg version="1.1" id="Layer_1" xmlns="http://www.w3.org/2000/svg" xmlns:xlink="http://www.w3.org/1999/xlink" x="0px" y="0px"
	 viewBox="0 0 512 512" style="enable-background:new 0 0 512 512;" xml:space="preserve">
<style type="text/css">
	
		.st0{clip-path:url(#SVGID_00000069390240983288394170000016212617295184125068_);fill:url(#SVGID_00000106859385517142352660000001249040652298789281_);}
</style>
<g>
	<defs>
		<path id="SVGID_1_" d="M0.89,278.87V511v0.01h232.14V366.8c0-48.56-39.37-87.92-87.92-87.92H0.89z M367.8,278.87
			c-48.56,0-87.93,39.37-87.93,87.92v144.22h232.14V278.87H367.8z M172.48,139.75l62.13-76.79c11.16-13.79,32.19-13.79,43.35,0
			l62.12,76.79c14.75,18.23,1.77,45.42-21.68,45.42H194.15C170.7,185.17,157.73,157.98,172.48,139.75 M0.89,0v143.69
			c0,48.45,39.28,87.73,87.73,87.73h337.19c47.42,0,85.86-38.44,85.86-85.86V0H0.89z"/>
	</defs>
	
		<linearGradient id="SVGID_00000062889758918084100990000015050619921556326070_" gradientUnits="userSpaceOnUse" x1="0.8928" y1="255.5056" x2="512.0061" y2="255.5056">
		<stop  offset="0" style="stop-color:#37C1F1"/>
		<stop  offset="1" style="stop-color:#68BD45"/>
	</linearGradient>
	<use xlink:href="#SVGID_1_"  style="overflow:visible;fill:url(#SVGID_00000062889758918084100990000015050619921556326070_);"/>
	<clipPath id="SVGID_00000046318248082055268600000012113886731780265903_">
		<use xlink:href="#SVGID_1_"  style="overflow:visible;"/>
	</clipPath>
	
		<linearGradient id="SVGID_00000171709598289915283290000017035856682878771332_" gradientUnits="userSpaceOnUse" x1="-53.7259" y1="656.1917" x2="-46.4275" y2="656.1917" gradientTransform="matrix(70.024 -70.024 70.024 70.024 -42186.1641 -49200.2539)">
		<stop  offset="0" style="stop-color:#37C1F1"/>
		<stop  offset="1" style="stop-color:#68BD45"/>
	</linearGradient>
	
		<polygon style="clip-path:url(#SVGID_00000046318248082055268600000012113886731780265903_);fill:url(#SVGID_00000171709598289915283290000017035856682878771332_);" points="
		256.45,766.57 767.51,255.51 256.45,-255.56 -254.61,255.51 	"/>
</g>
</svg>
