<svg width="50" height="50" viewBox="0 0 56 56" fill="none" xmlns="http://www.w3.org/2000/svg">
    <path d="M27.6 0.300293C12.3609 0.300293 0 12.6612 0 27.9003C0 43.1394 12.3609 55.5003 27.6 55.5003C42.8391 55.5003 55.2 43.1394 55.2 27.9003C55.2 12.6612 42.8391 0.300293 27.6 0.300293ZM43.2 31.5003C43.2 32.2222 42.7219 32.7003 42 32.7003H39.5H38H35.5H33H32C30.5 32.7003 26 32.7003 26.5 32.7003C27 32.7003 24.5 32.7003 24 32.7003C24 32.7003 21.4577 32.7003 18.8191 32.7003C16.1805 32.7003 13.2 32.7003 13.2 32.7003C12.4781 32.7003 12 32.2222 12 31.5003V24.3003C12 23.5784 12.4781 23.1003 13.2 23.1003H22.8H23.6001C23.6001 23.1003 24.8782 23.1003 25.6001 23.1003H28.6001C29.322 23.1003 28.6001 23.1003 32.4 23.1003H42C42.7219 23.1003 43.2 23.5784 43.2 24.3003V31.5003Z" fill="white"/>
</svg>