<svg width="50" height="50" viewBox="0 0 56 56" fill="none" xmlns="http://www.w3.org/2000/svg">
    <path d="M27.9999 0C12.7608 0 0.399902 12.3609 0.399902 27.6C0.399902 42.8391 12.7608 55.2 27.9999 55.2C43.239 55.2 55.5999 42.8391 55.5999 27.6C55.5999 12.3609 43.239 0 27.9999 0ZM43.5999 31.2C43.5999 31.9219 43.1218 32.4 42.3999 32.4H32.7999V42C32.7999 42.7219 32.3218 43.2 31.5999 43.2H24.3999C23.678 43.2 23.1999 42.7219 23.1999 42V32.4H13.5999C12.878 32.4 12.3999 31.9219 12.3999 31.2V24C12.3999 23.2781 12.878 22.8 13.5999 22.8H23.1999V13.2C23.1999 12.4781 23.678 12 24.3999 12H31.5999C32.3218 12 32.7999 12.4781 32.7999 13.2V22.8H42.3999C43.1218 22.8 43.5999 23.2781 43.5999 24V31.2Z" fill="white"/>
</svg>