<svg width="32" height="32" viewBox="0 0 32 32" fill="none"
    xmlns="http://www.w3.org/2000/svg">
    <g clip-path="url(#clip0_1636_39)">
        <path d="M30.8574 28.5711C30.8574 29.1773 30.6164 29.7588 30.1879 30.1874C29.7593 30.6159 29.1778 30.8569 28.5716 30.8569H3.42878C2.82256 30.8569 2.24119 30.6159 1.81254 30.1874C1.38388 29.7588 1.14307 29.1773 1.14307 28.5711V11.2226C1.14559 10.6229 1.38365 10.0483 1.80592 9.62258L9.62307 1.80544C10.0488 1.38316 10.6234 1.1451 11.2231 1.14258H28.5716C29.1778 1.14258 29.7593 1.38339 30.1879 1.81205C30.6164 2.2407 30.8574 2.82208 30.8574 3.42829V28.5711Z" stroke="white" stroke-width="3" stroke-linecap="round" stroke-linejoin="round"/>
        <path d="M24 30.8573V20.5716C24 20.2685 23.8795 19.9778 23.6654 19.7635C23.451 19.5491 23.1602 19.4287 22.8571 19.4287H9.14286C8.83975 19.4287 8.54905 19.5491 8.33474 19.7635C8.12041 19.9778 8 20.2685 8 20.5716V30.8573" stroke="white" stroke-width="3" stroke-linecap="round" stroke-linejoin="round"/>
        <path d="M24.0003 1.14258V9.14258C24.0003 9.44569 23.8799 9.73638 23.6657 9.95069C23.4513 10.165 23.1606 10.2854 22.8575 10.2854H13.7146C13.4115 10.2854 13.1208 10.165 12.9065 9.95069C12.6922 9.73638 12.5718 9.44569 12.5718 9.14258V1.14258" stroke="white" stroke-width="3" stroke-linecap="round" stroke-linejoin="round"/>
    </g>
    <defs>
        <clipPath id="clip0_1636_39">
            <rect width="32" height="32" fill="white"/>
        </clipPath>
    </defs>
</svg>
    