<?xml version="1.0" encoding="utf-8"?>
<!-- Generator: Adobe Illustrator 27.9.6, SVG Export Plug-In . SVG Version: 9.03 Build 54986)  -->
<svg version="1.1" id="Layer_1" xmlns="http://www.w3.org/2000/svg" xmlns:xlink="http://www.w3.org/1999/xlink" x="0px" y="0px"
	 viewBox="0 0 512 512" style="enable-background:new 0 0 512 512;" xml:space="preserve">
<style type="text/css">
	.st0{fill:url(#SVGID_1_);}
</style>
<g>
	<linearGradient id="SVGID_1_" gradientUnits="userSpaceOnUse" x1="92.3851" y1="418.9744" x2="419.3228" y2="92.0368">
		<stop  offset="0" style="stop-color:#37C1F1"/>
		<stop  offset="1" style="stop-color:#68BD45"/>
	</linearGradient>
	<path class="st0" d="M255.85,24.33c-127.68,0-231.18,103.5-231.18,231.18s103.5,231.18,231.18,231.18
		c127.68,0,231.18-103.5,231.18-231.18S383.53,24.33,255.85,24.33z M266.79,119.42c44.86-1.26,89.77-0.62,137.71-0.62
		c-10.62,18.85-19.9,35.95-29.95,52.58c-1.7,2.82-6.72,5.11-10.22,5.14c-47.9,0.33-95.8,0.22-147.27,0.22
		c10.25-16.78,17.59-31.33,27.45-43.9C249.62,126.35,259.1,119.64,266.79,119.42z M139.94,172.28
		c21.15-38.89,43.46-77.15,67.03-118.51c11.19,18.7,21.03,34.52,30.08,50.79c1.87,3.35,2.54,9.35,0.79,12.44
		c-23.82,41.99-48.17,83.68-74.26,128.69c-9.7-18.49-19.08-33.79-25.67-50.21C135.27,188.95,136.46,178.66,139.94,172.28z
		 M60.76,199.02c-0.68-1.17-0.59-2.78-1.04-5.08c1.82-0.44,2.31-0.67,2.8-0.67c20.09,0.22,43.62-5.9,59.29,2.54
		c14.94,8.06,22.06,31.09,31.95,47.93c15.53,26.44,30.5,53.2,47.71,83.34c-20.96-0.93-39.35-0.37-57.2-3.22
		c-7.26-1.16-15.51-8.39-19.59-15.11C102.72,272.58,81.91,235.7,60.76,199.02z M212.48,395.27c-36.74,0-73.48,0-113.68,0
		c10.76-19.43,19.57-36.28,29.45-52.47c2.17-3.56,8.09-6.8,12.31-6.85c47.27-0.48,94.55-0.3,142.32-0.3
		C273.63,376.86,251.2,395.27,212.48,395.27z M363.47,341.06c-20.14,38.27-42.51,75.37-65.96,116.18
		c-11.48-19.44-21.97-36.71-31.78-54.35c-1.29-2.33-0.08-7.08,1.5-9.83c23.65-40.98,47.55-81.81,71.47-122.64
		c0.42-0.72,1.7-0.94,3.57-1.9c7.44,13.6,16.71,26.59,21.68,41.05C367.21,319.08,367.91,332.63,363.47,341.06z M392.44,319.59
		c-4.2-0.17-9.98-3.42-12.06-6.98c-23.68-40.53-46.79-81.4-69.98-122.22c-0.39-0.68,0.13-1.88,0.26-3.25
		c16.47,0,33.19-1.66,49.32,0.68c8.38,1.22,18.59,7.74,23.05,14.92c23.12,37.25,44.65,75.48,68.96,117.17
		C429.5,319.91,410.95,320.34,392.44,319.59z"/>
</g>
</svg>
