<svg width="121" height="60" viewBox="0 0 121 60" fill="none" xmlns="http://www.w3.org/2000/svg">
    <path d="M21.9776 0.899999V5.555H14.4526V24H8.43256V5.555H0.872559V0.899999H21.9776ZM34.8217 0.549999C37.1551 0.549999 39.1617 1.02833 40.8417 1.985C42.5451 2.91833 43.8517 4.27167 44.7617 6.045C45.6717 7.81833 46.1267 9.95333 46.1267 12.45C46.1267 14.9467 45.6717 17.0817 44.7617 18.855C43.8517 20.6283 42.5451 21.9933 40.8417 22.95C39.1617 23.8833 37.1551 24.35 34.8217 24.35C32.4884 24.35 30.4701 23.8833 28.7667 22.95C27.0634 21.9933 25.7567 20.6283 24.8467 18.855C23.9367 17.0817 23.4817 14.9467 23.4817 12.45C23.4817 9.95333 23.9367 7.81833 24.8467 6.045C25.7567 4.27167 27.0634 2.91833 28.7667 1.985C30.4701 1.02833 32.4884 0.549999 34.8217 0.549999ZM34.8217 5.275C33.7017 5.275 32.7567 5.54333 31.9867 6.08C31.2167 6.61667 30.6334 7.42167 30.2367 8.495C29.8401 9.545 29.6417 10.8633 29.6417 12.45C29.6417 14.0133 29.8401 15.3317 30.2367 16.405C30.6334 17.4783 31.2167 18.2833 31.9867 18.82C32.7567 19.3567 33.7017 19.625 34.8217 19.625C35.9417 19.625 36.8751 19.3567 37.6217 18.82C38.3917 18.2833 38.9751 17.4783 39.3717 16.405C39.7684 15.3317 39.9667 14.0133 39.9667 12.45C39.9667 10.8633 39.7684 9.545 39.3717 8.495C38.9751 7.42167 38.3917 6.61667 37.6217 6.08C36.8751 5.54333 35.9417 5.275 34.8217 5.275ZM71.2324 0.899999L60.3824 13.885L59.9974 12.975L54.5024 19.66L53.3474 14.795L64.5474 0.899999H71.2324ZM56.2874 0.899999V24H50.2674V0.899999H56.2874ZM62.3424 8.53L71.6524 24H64.8274L57.8274 11.89L62.3424 8.53ZM74.535 24V0.899999H92.525V5.555H80.555V10.245H90.075V14.62H80.555V19.345H92.98V24H74.535ZM117.44 0.899999V24H110.755L103.58 11.505L101.83 8.075H101.795L101.935 12.345V24H96.6151V0.899999H103.3L110.475 13.395L112.225 16.825H112.26L112.12 12.555V0.899999H117.44Z" fill="#66BD51"/>
    <path d="M4.80022 35.9V59H2.00021V35.9H4.80022ZM30.4867 35.9V59H27.0217L17.3617 43.53L14.9117 39.19H14.8767L15.0167 42.69V59H12.3567V35.9H15.8217L25.4467 51.3L27.9317 55.745H27.9667L27.8267 52.21V35.9H30.4867ZM55.9798 35.9L47.2298 59H44.0448L35.2598 35.9H38.2698L44.1498 51.86L45.6198 56.445L47.0898 51.895L52.9698 35.9H55.9798ZM60.7551 59V35.9H76.9601V38.525H63.5551V45.98H73.9851V48.605H63.5551V56.375H77.4851V59H60.7551ZM90.4944 35.55C92.5244 35.55 94.2744 35.97 95.7444 36.81C97.2144 37.6267 98.4394 38.84 99.4194 40.45L97.0744 42.27C96.2111 40.7767 95.2311 39.7267 94.1344 39.12C93.0611 38.49 91.7544 38.175 90.2144 38.175C88.9778 38.175 87.9511 38.35 87.1344 38.7C86.3411 39.05 85.7578 39.5167 85.3844 40.1C85.0111 40.66 84.8244 41.3017 84.8244 42.025C84.8244 42.8417 85.0811 43.565 85.5944 44.195C86.1078 44.8017 87.1344 45.28 88.6744 45.63L93.6794 46.75C95.8961 47.24 97.4361 47.9867 98.2994 48.99C99.1861 49.97 99.6294 51.195 99.6294 52.665C99.6294 53.9717 99.2561 55.1383 98.5094 56.165C97.7861 57.1683 96.7594 57.95 95.4294 58.51C94.0994 59.07 92.5361 59.35 90.7394 59.35C89.0594 59.35 87.5778 59.1283 86.2944 58.685C85.0344 58.2183 83.9494 57.6 83.0394 56.83C82.1294 56.06 81.3828 55.1967 80.7994 54.24L83.2494 52.245C83.6928 53.1317 84.2644 53.9133 84.9644 54.59C85.6644 55.2667 86.5044 55.7917 87.4844 56.165C88.4878 56.5383 89.6311 56.725 90.9144 56.725C92.1044 56.725 93.1311 56.585 93.9944 56.305C94.8811 56.0017 95.5578 55.57 96.0244 55.01C96.4911 54.4267 96.7244 53.7267 96.7244 52.91C96.7244 52.1633 96.4794 51.4983 95.9894 50.915C95.4994 50.3083 94.5778 49.8533 93.2244 49.55L87.7994 48.325C86.3761 47.9983 85.2211 47.555 84.3344 46.995C83.4711 46.4117 82.8411 45.735 82.4444 44.965C82.0711 44.1717 81.8844 43.32 81.8844 42.41C81.8844 41.1733 82.2228 40.0417 82.8994 39.015C83.5994 37.965 84.5911 37.125 85.8744 36.495C87.1811 35.865 88.7211 35.55 90.4944 35.55ZM120.677 35.9V38.525H112.627V59H109.827V38.525H101.777V35.9H120.677Z" fill="#37C3EC"/>
    </svg>
    