<?xml version="1.0" encoding="utf-8"?>
<!-- Generator: Adobe Illustrator 27.9.6, SVG Export Plug-In . SVG Version: 9.03 Build 54986)  -->
<svg version="1.1" id="Layer_1" xmlns="http://www.w3.org/2000/svg" xmlns:xlink="http://www.w3.org/1999/xlink" x="0px" y="0px"
	 viewBox="0 0 612 792" style="enable-background:new 0 0 612 792;" xml:space="preserve">
<style type="text/css">
	
		.st0{clip-path:url(#SVGID_00000176033306188244232300000016345298790381991085_);fill:url(#SVGID_00000129916086640623323970000013834821739928699270_);}
	
		.st1{clip-path:url(#SVGID_00000132806354448686674270000007638863800867371435_);fill:url(#SVGID_00000149357534571422842060000015984391668749850517_);}
	.st2{fill:#6ABD46;}
	.st3{fill:#3BC1F0;}
</style>
<g>
	<defs>
		<path id="SVGID_1_" d="M303.61,368.24l-10.85,13.41c-1.43,1.77-0.17,4.41,2.1,4.41h21.7c2.27,0,3.53-2.64,2.1-4.41l-10.85-13.41
			c-0.54-0.67-1.32-1-2.1-1C304.94,367.24,304.16,367.57,303.61,368.24"/>
	</defs>
	<clipPath id="SVGID_00000023265111886568903600000009803643448603014846_">
		<use xlink:href="#SVGID_1_"  style="overflow:visible;"/>
	</clipPath>
	
		<linearGradient id="SVGID_00000108271850846792835230000016702794812534063000_" gradientUnits="userSpaceOnUse" x1="2.064" y1="806.8066" x2="3.064" y2="806.8066" gradientTransform="matrix(15.9585 -15.9585 15.9585 15.9585 -12613.3252 -12455.1328)">
		<stop  offset="0" style="stop-color:#37C1F1"/>
		<stop  offset="1" style="stop-color:#68BD45"/>
	</linearGradient>
	
		<polygon style="clip-path:url(#SVGID_00000023265111886568903600000009803643448603014846_);fill:url(#SVGID_00000108271850846792835230000016702794812534063000_);" points="
		305.72,400.44 329.51,376.65 305.72,352.85 281.92,376.65 	"/>
</g>
<g>
	<defs>
		<path id="SVGID_00000082354487534264737120000016510408776026396304_" d="M270.72,398.9H294c4.71,0,8.53,3.82,8.53,8.53v23.28
			h-31.81V398.9z M308.95,407.42c0-4.71,3.82-8.53,8.53-8.53h23.28v31.81h-31.81V407.42z M270.72,383.89v-23.2h69.99v23.38
			c0,4.6-3.73,8.33-8.33,8.33h-53.15C274.53,392.39,270.72,388.59,270.72,383.89 M265.39,436.04h80.7v-80.7h-80.7V436.04z"/>
	</defs>
	
		<linearGradient id="SVGID_00000044144680307269732460000000156151585939243699_" gradientUnits="userSpaceOnUse" x1="265.3911" y1="395.6956" x2="346.0872" y2="395.6956">
		<stop  offset="0" style="stop-color:#37C1F1"/>
		<stop  offset="1" style="stop-color:#68BD45"/>
	</linearGradient>
	
		<use xlink:href="#SVGID_00000082354487534264737120000016510408776026396304_"  style="overflow:visible;fill:url(#SVGID_00000044144680307269732460000000156151585939243699_);"/>
	<clipPath id="SVGID_00000107582143523076442240000011543572338035506103_">
		<use xlink:href="#SVGID_00000082354487534264737120000016510408776026396304_"  style="overflow:visible;"/>
	</clipPath>
	
		<linearGradient id="SVGID_00000066502072310688865160000004784868133837695121_" gradientUnits="userSpaceOnUse" x1="1.2104" y1="795.7304" x2="2.2104" y2="795.7304" gradientTransform="matrix(80.696 -80.696 80.696 80.696 -64044.5391 -63678.5352)">
		<stop  offset="0" style="stop-color:#37C1F1"/>
		<stop  offset="1" style="stop-color:#68BD45"/>
	</linearGradient>
	
		<polygon style="clip-path:url(#SVGID_00000107582143523076442240000011543572338035506103_);fill:url(#SVGID_00000066502072310688865160000004784868133837695121_);" points="
		305.74,476.39 386.44,395.7 305.74,315 225.04,395.7 	"/>
</g>
<g>
	<path class="st2" d="M396.99,353.88v7.57h-12.23v29.98h-9.79v-29.98h-12.29v-7.57H396.99z"/>
	<path class="st2" d="M417.87,353.32c3.79,0,7.06,0.77,9.81,2.3c2.75,1.54,4.87,3.75,6.34,6.63c1.48,2.88,2.22,6.35,2.22,10.41
		s-0.74,7.53-2.22,10.41c-1.48,2.88-3.59,5.09-6.34,6.63c-2.75,1.54-6.02,2.31-9.81,2.31c-3.8,0-7.07-0.77-9.84-2.31
		c-2.77-1.53-4.89-3.74-6.38-6.63c-1.48-2.88-2.22-6.35-2.22-10.41s0.74-7.53,2.22-10.41c1.48-2.88,3.61-5.09,6.38-6.63
		C410.8,354.08,414.07,353.32,417.87,353.32z M417.87,361c-1.82,0-3.36,0.44-4.61,1.31c-1.25,0.87-2.2,2.17-2.84,3.9
		c-0.65,1.72-0.97,3.88-0.97,6.46c0,2.54,0.32,4.69,0.97,6.43c0.64,1.75,1.59,3.05,2.84,3.93c1.25,0.87,2.79,1.31,4.61,1.31
		c1.82,0,3.34-0.44,4.58-1.31c1.23-0.87,2.17-2.18,2.81-3.93c0.64-1.74,0.97-3.89,0.97-6.43c0-2.58-0.32-4.73-0.97-6.46
		c-0.64-1.73-1.58-3.03-2.81-3.9C421.21,361.43,419.69,361,417.87,361z"/>
	<path class="st2" d="M452.74,353.88v37.55h-9.78v-37.55H452.74z M477.03,353.88l-17.64,21.11l-0.63-1.48l-8.93,10.87l-1.88-7.91
		l18.2-22.59H477.03z M462.58,366.29l15.13,25.15h-11.09l-11.38-19.68L462.58,366.29z"/>
	<path class="st2" d="M482.38,391.43v-37.55h29.24v7.57h-19.45v7.63h15.47v7.11h-15.47v7.68h20.2v7.57H482.38z"/>
	<path class="st2" d="M552.13,353.88v37.55h-10.87l-11.66-20.31l-2.84-5.57h-0.06l0.23,6.94v18.95h-8.65v-37.55h10.87l11.66,20.31
		l2.84,5.58h0.06l-0.23-6.94v-18.95H552.13z"/>
</g>
<g>
	<path class="st3" d="M368.57,399.54v36.33h-5.89v-36.33H368.57z"/>
	<path class="st3" d="M409.14,399.54v36.33h-6.99l-14.03-22.9l-3.53-6.44h-0.05l0.22,5.89v23.44h-5.39v-36.33h6.93l13.98,22.84
		l3.58,6.55h0.05l-0.22-5.94v-23.45H409.14z"/>
	<path class="st3" d="M449.53,399.54l-13.48,36.33h-6.88l-13.49-36.33h6.28l8.47,24.17l2.2,7.21l2.2-7.15l8.48-24.22H449.53z"/>
	<path class="st3" d="M456.14,435.86v-36.33h26.31v5.07h-20.42v10.45h15.96v4.95h-15.96v10.79h21.19v5.06H456.14z"/>
	<path class="st3" d="M503.53,398.99c3.27,0,6.09,0.62,8.47,1.85c2.39,1.23,4.4,3.04,6.06,5.42l-3.96,3.8
		c-1.39-2.13-2.97-3.66-4.71-4.6c-1.74-0.94-3.81-1.4-6.19-1.4c-1.76,0-3.21,0.24-4.35,0.72c-1.14,0.47-1.97,1.11-2.5,1.89
		c-0.53,0.79-0.8,1.68-0.8,2.67c0,1.14,0.39,2.13,1.18,2.97c0.79,0.85,2.27,1.51,4.43,1.98l7.38,1.65c3.52,0.77,6.02,1.94,7.48,3.52
		c1.47,1.58,2.2,3.58,2.2,6c0,2.24-0.6,4.18-1.82,5.83c-1.21,1.65-2.89,2.92-5.03,3.8c-2.15,0.88-4.67,1.32-7.57,1.32
		c-2.57,0-4.88-0.33-6.93-0.99c-2.06-0.66-3.85-1.56-5.39-2.7c-1.54-1.14-2.81-2.44-3.8-3.91l4.07-4.07
		c0.77,1.29,1.74,2.43,2.92,3.44s2.54,1.79,4.1,2.34c1.56,0.55,3.29,0.83,5.2,0.83c1.69,0,3.14-0.2,4.38-0.61
		c1.23-0.4,2.16-1,2.81-1.79c0.64-0.79,0.96-1.73,0.96-2.84c0-1.06-0.36-2-1.08-2.8c-0.72-0.81-2.05-1.43-3.99-1.87l-7.98-1.82
		c-2.2-0.47-4.02-1.16-5.45-2.03c-1.43-0.88-2.49-1.96-3.19-3.22c-0.69-1.27-1.04-2.69-1.04-4.27c0-2.05,0.56-3.91,1.68-5.59
		c1.12-1.67,2.74-3.01,4.87-4.02C498.06,399.49,500.59,398.99,503.53,398.99z"/>
	<path class="st3" d="M552.13,399.54v5.07h-12.44v31.26h-5.89V404.6h-12.44v-5.07H552.13z"/>
</g>
</svg>
